<svg xmlns="http://www.w3.org/2000/svg" viewBox="0 0 313.08 328.22"><defs><style>.cls-1{font-size:35px;}.cls-1,.cls-7{fill:#f2f2f2;font-family:Roboto-Black, Roboto;font-weight:800;}.cls-2,.cls-5,.cls-6{fill:none;stroke:#f4f4f4;stroke-miterlimit:10;}.cls-2,.cls-5{stroke-linecap:round;}.cls-2{stroke-width:2px;}.cls-3{fill:#fff;}.cls-4{fill:#f4f4f4;}.cls-5{stroke-width:6px;}.cls-6{stroke-linecap:square;stroke-width:0.75px;}.cls-7{font-size:12px;}</style></defs><title>full</title><g id="Layer_2" data-name="Layer 2"><g id="Layer_4" data-name="Layer 4"><g id="full"><text class="cls-1" transform="translate(0 289.32)">Brainy Coders</text><line class="cls-2" x1="2.43" y1="302.32" x2="312.08" y2="302.32"/><path class="cls-3" d="M197.75,49.4a68.63,68.63,0,1,0-92.06,101.77A47.63,47.63,0,0,1,122,183.63h-1.59a4.77,4.77,0,0,0-4.77,4.77v43.16a4.78,4.78,0,0,0,4.77,4.77h9.37v2.76a21,21,0,1,0,42,0v-2.76h9.36a4.77,4.77,0,0,0,4.77-4.77V188.4a4.76,4.76,0,0,0-4.77-4.77h-1.58a49.31,49.31,0,0,1,16.76-32.89A68.63,68.63,0,0,0,197.75,49.4ZM176.38,193.17v12H125.14v-12h51.24Zm-14.13,45.92a11.49,11.49,0,1,1-23,0v-2.76h23Zm4.77-12.3H125.14v-12h51.24v12Zm23-83.18a58.78,58.78,0,0,0-20,40H131.53A57.15,57.15,0,0,0,112,144a59.1,59.1,0,1,1,78-.37Z"/><path class="cls-3" d="M126.09,85.52v9.9l-8.56,6.65,8.52,6.68,0,9.82L110.9,107a2.78,2.78,0,0,1-1.11-2.22V99.28a2.78,2.78,0,0,1,1.11-2.22Z"/><polygon class="cls-4" points="165.18 87.86 144.18 116.24 136.34 116.24 157.37 87.81 165.12 87.81 165.18 87.86"/><path class="cls-3" d="M192.62,99.35v5.37a2.9,2.9,0,0,1-1.15,2.33l-15.14,11.52,0-9.82,8.52-6.68-8.56-6.65v-9.9L191.47,97A2.9,2.9,0,0,1,192.62,99.35Z"/><line class="cls-5" x1="150.76" y1="20.98" x2="150.76" y2="3"/><line class="cls-5" x1="109.79" y1="32.49" x2="101.45" y2="21.92"/><line class="cls-5" x1="193.16" y1="33.96" x2="200.11" y2="22.56"/><line class="cls-5" x1="219.39" y1="60.1" x2="231.49" y2="52.5"/><line class="cls-5" x1="78.36" y1="56.39" x2="67.6" y2="48.61"/><line class="cls-6" x1="2.43" y1="307.56" x2="2.43" y2="311.73"/><line class="cls-6" x1="4.43" y1="307.58" x2="4.43" y2="311.7"/><line class="cls-6" x1="6.43" y1="307.6" x2="6.43" y2="311.67"/><line class="cls-6" x1="8.42" y1="307.63" x2="8.42" y2="311.64"/><line class="cls-6" x1="10.42" y1="307.65" x2="10.42" y2="311.61"/><line class="cls-6" x1="12.42" y1="307.67" x2="12.42" y2="311.58"/><line class="cls-6" x1="14.42" y1="307.7" x2="14.42" y2="311.55"/><line class="cls-6" x1="16.41" y1="307.72" x2="16.41" y2="311.52"/><line class="cls-6" x1="18.41" y1="307.75" x2="18.41" y2="311.49"/><line class="cls-6" x1="20.41" y1="307.77" x2="20.41" y2="311.46"/><line class="cls-6" x1="22.41" y1="307.79" x2="22.41" y2="311.43"/><line class="cls-6" x1="24.4" y1="307.82" x2="24.4" y2="311.4"/><line class="cls-6" x1="26.4" y1="307.84" x2="26.4" y2="311.37"/><line class="cls-6" x1="28.4" y1="307.87" x2="28.4" y2="311.34"/><line class="cls-6" x1="30.4" y1="307.89" x2="30.4" y2="311.31"/><line class="cls-6" x1="32.4" y1="307.91" x2="32.4" y2="311.28"/><line class="cls-6" x1="34.39" y1="307.94" x2="34.39" y2="311.25"/><line class="cls-6" x1="36.39" y1="307.96" x2="36.39" y2="311.22"/><line class="cls-6" x1="38.39" y1="307.99" x2="38.39" y2="311.19"/><line class="cls-6" x1="40.39" y1="308.01" x2="40.39" y2="311.16"/><line class="cls-6" x1="42.38" y1="308.03" x2="42.38" y2="311.13"/><line class="cls-6" x1="44.38" y1="308.06" x2="44.38" y2="311.1"/><line class="cls-6" x1="46.38" y1="308.08" x2="46.38" y2="311.07"/><line class="cls-6" x1="48.38" y1="308.11" x2="48.38" y2="311.04"/><line class="cls-6" x1="50.38" y1="308.13" x2="50.38" y2="311.01"/><line class="cls-6" x1="52.37" y1="308.15" x2="52.37" y2="310.98"/><line class="cls-6" x1="54.37" y1="308.18" x2="54.37" y2="310.95"/><line class="cls-6" x1="56.37" y1="308.2" x2="56.37" y2="310.92"/><line class="cls-6" x1="58.37" y1="308.22" x2="58.37" y2="310.89"/><line class="cls-6" x1="60.36" y1="308.25" x2="60.36" y2="310.86"/><line class="cls-6" x1="62.36" y1="308.27" x2="62.36" y2="310.83"/><line class="cls-6" x1="64.36" y1="308.3" x2="64.36" y2="310.8"/><line class="cls-6" x1="66.36" y1="308.32" x2="66.36" y2="310.77"/><line class="cls-6" x1="68.35" y1="308.34" x2="68.35" y2="310.74"/><line class="cls-6" x1="70.35" y1="308.37" x2="70.35" y2="310.71"/><line class="cls-6" x1="72.35" y1="308.39" x2="72.35" y2="310.68"/><line class="cls-6" x1="74.35" y1="308.42" x2="74.35" y2="310.65"/><line class="cls-6" x1="76.35" y1="308.44" x2="76.35" y2="310.62"/><line class="cls-6" x1="78.34" y1="308.46" x2="78.34" y2="310.59"/><line class="cls-6" x1="80.34" y1="308.49" x2="80.34" y2="310.56"/><line class="cls-6" x1="82.34" y1="308.51" x2="82.34" y2="310.53"/><line class="cls-6" x1="84.34" y1="308.54" x2="84.34" y2="310.5"/><line class="cls-6" x1="86.33" y1="308.56" x2="86.33" y2="310.47"/><line class="cls-6" x1="88.33" y1="308.58" x2="88.33" y2="310.44"/><line class="cls-6" x1="90.33" y1="308.61" x2="90.33" y2="310.41"/><line class="cls-6" x1="92.33" y1="308.63" x2="92.33" y2="310.38"/><line class="cls-6" x1="94.32" y1="308.66" x2="94.32" y2="310.35"/><line class="cls-6" x1="96.32" y1="308.68" x2="96.32" y2="310.32"/><line class="cls-6" x1="98.32" y1="308.7" x2="98.32" y2="310.29"/><line class="cls-6" x1="100.32" y1="308.73" x2="100.32" y2="310.26"/><line class="cls-6" x1="102.32" y1="308.75" x2="102.32" y2="310.23"/><line class="cls-6" x1="104.31" y1="308.77" x2="104.31" y2="310.2"/><line class="cls-6" x1="106.31" y1="308.8" x2="106.31" y2="310.17"/><line class="cls-6" x1="108.31" y1="308.82" x2="108.31" y2="310.14"/><line class="cls-6" x1="110.31" y1="308.85" x2="110.31" y2="310.11"/><line class="cls-6" x1="112.3" y1="308.87" x2="112.3" y2="310.08"/><line class="cls-6" x1="114.3" y1="308.89" x2="114.3" y2="310.05"/><line class="cls-6" x1="116.3" y1="308.92" x2="116.3" y2="310.02"/><line class="cls-6" x1="118.3" y1="308.94" x2="118.3" y2="309.99"/><line class="cls-6" x1="120.3" y1="308.97" x2="120.3" y2="309.96"/><line class="cls-6" x1="122.29" y1="308.99" x2="122.29" y2="309.93"/><line class="cls-6" x1="124.29" y1="309.01" x2="124.29" y2="309.9"/><line class="cls-6" x1="126.29" y1="309.04" x2="126.29" y2="309.87"/><line class="cls-6" x1="128.29" y1="309.06" x2="128.29" y2="309.84"/><line class="cls-6" x1="130.28" y1="309.09" x2="130.28" y2="309.81"/><line class="cls-6" x1="132.28" y1="309.11" x2="132.28" y2="309.78"/><line class="cls-6" x1="134.28" y1="309.13" x2="134.28" y2="309.75"/><line class="cls-6" x1="136.28" y1="309.16" x2="136.28" y2="309.72"/><line class="cls-6" x1="138.27" y1="309.18" x2="138.27" y2="309.69"/><line class="cls-6" x1="140.27" y1="309.21" x2="140.27" y2="309.66"/><line class="cls-6" x1="142.27" y1="309.23" x2="142.27" y2="309.63"/><line class="cls-6" x1="144.27" y1="309.25" x2="144.27" y2="309.6"/><line class="cls-6" x1="146.27" y1="309.28" x2="146.27" y2="309.57"/><line class="cls-6" x1="148.26" y1="309.3" x2="148.26" y2="309.54"/><line class="cls-6" x1="150.26" y1="309.32" x2="150.26" y2="309.51"/><line class="cls-6" x1="152.26" y1="309.35" x2="152.26" y2="309.48"/><line class="cls-6" x1="154.26" y1="309.37" x2="154.26" y2="309.45"/><line class="cls-6" x1="156.25" y1="309.4" x2="156.25" y2="309.42"/><line class="cls-6" x1="158.25" y1="309.42" x2="158.25" y2="309.39"/><line class="cls-6" x1="160.25" y1="309.44" x2="160.25" y2="309.36"/><line class="cls-6" x1="162.25" y1="309.47" x2="162.25" y2="309.33"/><line class="cls-6" x1="164.25" y1="309.49" x2="164.25" y2="309.3"/><line class="cls-6" x1="166.24" y1="309.52" x2="166.24" y2="309.27"/><line class="cls-6" x1="168.24" y1="309.54" x2="168.24" y2="309.24"/><line class="cls-6" x1="170.24" y1="309.56" x2="170.24" y2="309.21"/><line class="cls-6" x1="172.24" y1="309.59" x2="172.24" y2="309.18"/><line class="cls-6" x1="174.23" y1="309.61" x2="174.23" y2="309.15"/><line class="cls-6" x1="176.23" y1="309.64" x2="176.23" y2="309.12"/><line class="cls-6" x1="178.23" y1="309.66" x2="178.23" y2="309.09"/><line class="cls-6" x1="180.23" y1="309.68" x2="180.23" y2="309.06"/><line class="cls-6" x1="182.22" y1="309.71" x2="182.22" y2="309.03"/><line class="cls-6" x1="184.22" y1="309.73" x2="184.22" y2="309"/><line class="cls-6" x1="186.22" y1="309.76" x2="186.22" y2="308.97"/><line class="cls-6" x1="188.22" y1="309.78" x2="188.22" y2="308.94"/><line class="cls-6" x1="190.22" y1="309.8" x2="190.22" y2="308.91"/><line class="cls-6" x1="192.21" y1="309.83" x2="192.21" y2="308.88"/><line class="cls-6" x1="194.21" y1="309.85" x2="194.21" y2="308.85"/><line class="cls-6" x1="196.21" y1="309.87" x2="196.21" y2="308.82"/><line class="cls-6" x1="198.21" y1="309.9" x2="198.21" y2="308.79"/><line class="cls-6" x1="200.2" y1="309.92" x2="200.2" y2="308.76"/><line class="cls-6" x1="202.2" y1="309.95" x2="202.2" y2="308.73"/><line class="cls-6" x1="204.2" y1="309.97" x2="204.2" y2="308.7"/><line class="cls-6" x1="206.2" y1="309.99" x2="206.2" y2="308.67"/><line class="cls-6" x1="208.2" y1="310.02" x2="208.2" y2="308.64"/><line class="cls-6" x1="210.19" y1="310.04" x2="210.19" y2="308.61"/><line class="cls-6" x1="212.19" y1="310.07" x2="212.19" y2="308.58"/><line class="cls-6" x1="214.19" y1="310.09" x2="214.19" y2="308.55"/><line class="cls-6" x1="216.19" y1="310.11" x2="216.19" y2="308.52"/><line class="cls-6" x1="218.18" y1="310.14" x2="218.18" y2="308.49"/><line class="cls-6" x1="220.18" y1="310.16" x2="220.18" y2="308.46"/><line class="cls-6" x1="222.18" y1="310.19" x2="222.18" y2="308.43"/><line class="cls-6" x1="224.18" y1="310.21" x2="224.18" y2="308.4"/><line class="cls-6" x1="226.17" y1="310.23" x2="226.17" y2="308.37"/><line class="cls-6" x1="228.17" y1="310.26" x2="228.17" y2="308.34"/><line class="cls-6" x1="230.17" y1="310.28" x2="230.17" y2="308.31"/><line class="cls-6" x1="232.17" y1="310.3" x2="232.17" y2="308.28"/><line class="cls-6" x1="234.17" y1="310.33" x2="234.17" y2="308.25"/><line class="cls-6" x1="236.16" y1="310.35" x2="236.16" y2="308.22"/><line class="cls-6" x1="238.16" y1="310.38" x2="238.16" y2="308.19"/><line class="cls-6" x1="240.16" y1="310.4" x2="240.16" y2="308.16"/><line class="cls-6" x1="242.16" y1="310.42" x2="242.16" y2="308.13"/><line class="cls-6" x1="244.15" y1="310.45" x2="244.15" y2="308.1"/><line class="cls-6" x1="246.15" y1="310.47" x2="246.15" y2="308.07"/><line class="cls-6" x1="248.15" y1="310.5" x2="248.15" y2="308.04"/><line class="cls-6" x1="250.15" y1="310.52" x2="250.15" y2="308.01"/><line class="cls-6" x1="252.15" y1="310.54" x2="252.15" y2="307.98"/><line class="cls-6" x1="254.14" y1="310.57" x2="254.14" y2="307.95"/><line class="cls-6" x1="256.14" y1="310.59" x2="256.14" y2="307.92"/><line class="cls-6" x1="258.14" y1="310.62" x2="258.14" y2="307.89"/><line class="cls-6" x1="260.14" y1="310.64" x2="260.14" y2="307.86"/><line class="cls-6" x1="262.13" y1="310.66" x2="262.13" y2="307.83"/><line class="cls-6" x1="264.13" y1="310.69" x2="264.13" y2="307.8"/><line class="cls-6" x1="266.13" y1="310.71" x2="266.13" y2="307.77"/><line class="cls-6" x1="268.13" y1="310.74" x2="268.13" y2="307.74"/><line class="cls-6" x1="270.12" y1="310.76" x2="270.12" y2="307.71"/><line class="cls-6" x1="272.12" y1="310.78" x2="272.12" y2="307.68"/><line class="cls-6" x1="274.12" y1="310.81" x2="274.12" y2="307.65"/><line class="cls-6" x1="276.12" y1="310.83" x2="276.12" y2="307.62"/><line class="cls-6" x1="278.12" y1="310.85" x2="278.12" y2="307.59"/><line class="cls-6" x1="280.11" y1="310.88" x2="280.11" y2="307.56"/><line class="cls-6" x1="282.11" y1="310.9" x2="282.11" y2="307.53"/><line class="cls-6" x1="284.11" y1="310.93" x2="284.11" y2="307.5"/><line class="cls-6" x1="286.11" y1="310.95" x2="286.11" y2="307.47"/><line class="cls-6" x1="288.1" y1="310.97" x2="288.1" y2="307.44"/><line class="cls-6" x1="290.1" y1="311" x2="290.1" y2="307.41"/><line class="cls-6" x1="292.1" y1="311.02" x2="292.1" y2="307.38"/><line class="cls-6" x1="294.1" y1="311.05" x2="294.1" y2="307.35"/><line class="cls-6" x1="296.09" y1="311.07" x2="296.09" y2="307.32"/><line class="cls-6" x1="298.09" y1="311.09" x2="298.09" y2="307.29"/><line class="cls-6" x1="300.09" y1="311.12" x2="300.09" y2="307.26"/><line class="cls-6" x1="302.09" y1="311.14" x2="302.09" y2="307.23"/><line class="cls-6" x1="304.09" y1="311.17" x2="304.09" y2="307.2"/><line class="cls-6" x1="306.08" y1="311.19" x2="306.08" y2="307.17"/><line class="cls-6" x1="308.08" y1="311.21" x2="308.08" y2="307.14"/><line class="cls-6" x1="310.08" y1="311.24" x2="310.08" y2="307.11"/><line class="cls-6" x1="312.08" y1="307.08" x2="312.08" y2="311.26"/><text class="cls-7" transform="translate(3.73 324.97)">we got the brain and the brawn</text></g></g></g></svg>