<svg xmlns="http://www.w3.org/2000/svg" width="724" height="426" viewBox="0 0 724 426"><g transform="translate(287)" fill="#fff" stroke="#707070" stroke-width="1"><circle cx="13" cy="13" r="13" stroke="none"/><circle cx="13" cy="13" r="12.5" fill="none"/></g><g transform="translate(0 67)" fill="#fff" stroke="#707070" stroke-width="1"><circle cx="13" cy="13" r="13" stroke="none"/><circle cx="13" cy="13" r="12.5" fill="none"/></g><g transform="translate(363 261)" fill="#fff" stroke="#707070" stroke-width="1"><circle cx="13" cy="13" r="13" stroke="none"/><circle cx="13" cy="13" r="12.5" fill="none"/></g><g transform="translate(62 275)" fill="#fff" stroke="#707070" stroke-width="1"><circle cx="13" cy="13" r="13" stroke="none"/><circle cx="13" cy="13" r="12.5" fill="none"/></g><g transform="translate(225 400)" fill="#fff" stroke="#707070" stroke-width="1"><circle cx="13" cy="13" r="13" stroke="none"/><circle cx="13" cy="13" r="12.5" fill="none"/></g><g transform="translate(123 170)" fill="#fff" stroke="#707070" stroke-width="1"><circle cx="13" cy="13" r="13" stroke="none"/><circle cx="13" cy="13" r="12.5" fill="none"/></g><path d="M398.819,353H192.7L80.2,240.506H-25" transform="translate(325.181 -228)" fill="none" stroke="#fff" stroke-width="2"/><line x1="587" transform="translate(136.5 183.5)" fill="none" stroke="#fff" stroke-width="2"/><path d="M679.21,411.5,576.2,308.486H377" transform="translate(-357.21 -228)" fill="none" stroke="#fff" stroke-width="2"/><path d="M322.859,411.5l-90.374,90.374H83.059" transform="translate(293.081 -228)" fill="none" stroke="#fff" stroke-width="2"/><path d="M620,540H511.4L476.46,574.942H260.617l-59.348-59.348H-25" transform="translate(104.002 -228)" fill="none" stroke="#fff" stroke-width="2"/><path d="M456.29,605.942l-66.265,66.265H222.92" transform="translate(19.79 -259)" fill="none" stroke="#fff" stroke-width="2"/></svg>